<svg width="36" height="29" viewBox="0 0 36 29" fill="none" xmlns="http://www.w3.org/2000/svg">
<g clip-path="url(#clip0_844_491)">
<path d="M19.7992 9.79688C19.7992 9.56067 19.6833 9.33413 19.477 9.16711C19.2707 9.00008 18.991 8.90625 18.6992 8.90625C18.4075 8.90625 18.1277 9.00008 17.9214 9.16711C17.7151 9.33413 17.5992 9.56067 17.5992 9.79688V12.4688H14.2992C14.0075 12.4688 13.7277 12.5626 13.5214 12.7296C13.3151 12.8966 13.1992 13.1232 13.1992 13.3594C13.1992 13.5956 13.3151 13.8221 13.5214 13.9891C13.7277 14.1562 14.0075 14.25 14.2992 14.25H17.5992V16.9219C17.5992 17.1581 17.7151 17.3846 17.9214 17.5516C18.1277 17.7187 18.4075 17.8125 18.6992 17.8125C18.991 17.8125 19.2707 17.7187 19.477 17.5516C19.6833 17.3846 19.7992 17.1581 19.7992 16.9219V14.25H23.0992C23.391 14.25 23.6707 14.1562 23.877 13.9891C24.0833 13.8221 24.1992 13.5956 24.1992 13.3594C24.1992 13.1232 24.0833 12.8966 23.877 12.7296C23.6707 12.5626 23.391 12.4688 23.0992 12.4688H19.7992V9.79688Z" fill="white"/>
<path d="M1.1 1.78125C0.808262 1.78125 0.528473 1.87508 0.322183 2.04211C0.115893 2.20913 0 2.43567 0 2.67188C0 2.90808 0.115893 3.13462 0.322183 3.30164C0.528473 3.46867 0.808262 3.5625 1.1 3.5625H3.542L4.4242 6.42497L7.7198 20.6483C7.76699 20.8523 7.90076 21.0367 8.098 21.1694C8.29524 21.3021 8.54355 21.3748 8.8 21.375H11C9.83305 21.375 8.71389 21.7503 7.88873 22.4184C7.06357 23.0865 6.6 23.9927 6.6 24.9375C6.6 25.8823 7.06357 26.7885 7.88873 27.4566C8.71389 28.1247 9.83305 28.5 11 28.5C12.167 28.5 13.2861 28.1247 14.1113 27.4566C14.9364 26.7885 15.4 25.8823 15.4 24.9375C15.4 23.9927 14.9364 23.0865 14.1113 22.4184C13.2861 21.7503 12.167 21.375 11 21.375H26.4C25.233 21.375 24.1139 21.7503 23.2887 22.4184C22.4636 23.0865 22 23.9927 22 24.9375C22 25.8823 22.4636 26.7885 23.2887 27.4566C24.1139 28.1247 25.233 28.5 26.4 28.5C27.567 28.5 28.6861 28.1247 29.5113 27.4566C30.3364 26.7885 30.8 25.8823 30.8 24.9375C30.8 23.9927 30.3364 23.0865 29.5113 22.4184C28.6861 21.7503 27.567 21.375 26.4 21.375H28.6C28.8564 21.3748 29.1048 21.3021 29.302 21.1694C29.4992 21.0367 29.633 20.8523 29.6802 20.6483L32.9802 6.39825C33.0099 6.26971 33.0043 6.13745 32.9638 6.01086C32.9232 5.88427 32.8488 5.76646 32.7457 5.66581C32.6426 5.56515 32.5133 5.48411 32.3672 5.42845C32.221 5.37279 32.0615 5.34387 31.9 5.34375H6.358L5.467 2.45634C5.40762 2.26358 5.27035 2.09243 5.07701 1.97011C4.88367 1.84778 4.64537 1.7813 4.4 1.78125H1.1ZM9.713 19.5938L6.8244 7.125H30.5756L27.687 19.5938H9.713ZM13.2 24.9375C13.2 25.4099 12.9682 25.863 12.5556 26.197C12.1431 26.5311 11.5835 26.7188 11 26.7188C10.4165 26.7188 9.85695 26.5311 9.44437 26.197C9.03179 25.863 8.8 25.4099 8.8 24.9375C8.8 24.4651 9.03179 24.012 9.44437 23.678C9.85695 23.3439 10.4165 23.1562 11 23.1562C11.5835 23.1562 12.1431 23.3439 12.5556 23.678C12.9682 24.012 13.2 24.4651 13.2 24.9375ZM28.6 24.9375C28.6 25.4099 28.3682 25.863 27.9556 26.197C27.5431 26.5311 26.9835 26.7188 26.4 26.7188C25.8165 26.7188 25.2569 26.5311 24.8444 26.197C24.4318 25.863 24.2 25.4099 24.2 24.9375C24.2 24.4651 24.4318 24.012 24.8444 23.678C25.2569 23.3439 25.8165 23.1562 26.4 23.1562C26.9835 23.1562 27.5431 23.3439 27.9556 23.678C28.3682 24.012 28.6 24.4651 28.6 24.9375Z" fill="white"/>
</g>
<defs>
<clipPath id="clip0_844_491">
<rect width="35.2" height="28.5" fill="white"/>
</clipPath>
</defs>
</svg>
