<svg width="38" height="38" viewBox="0 0 38 38" fill="none" xmlns="http://www.w3.org/2000/svg">
<path d="M29.1104 0H8.88961C3.96444 0 0 4.00434 0 8.88961V29.1104C0 34.0356 4.00434 38 8.88961 38H29.1104C34.0356 38 38 33.9957 38 29.1104V8.88961C38 4.0045 33.9957 0 29.1104 0ZM26.708 24.546C27.3088 25.1467 27.3088 26.1476 26.708 26.7484C26.3876 27.0688 25.9871 27.1889 25.587 27.1889C25.1865 27.1889 24.786 27.0287 24.4659 26.7484L18.9401 21.2225L13.4142 26.7484C13.0938 27.0688 12.6933 27.1889 12.2932 27.1889C11.8927 27.1889 11.4922 27.0287 11.1721 26.7484C10.5714 26.1476 10.5714 25.1467 11.1721 24.546L16.698 19.0201L11.1721 13.4942C10.5714 12.8935 10.5714 11.8926 11.1721 11.2918C11.7729 10.6911 12.7738 10.6911 13.3746 11.2918L18.9004 16.8177L24.4263 11.2918C25.027 10.6911 26.0279 10.6911 26.6287 11.2918C27.2294 11.8926 27.2294 12.8935 26.6287 13.4942L21.1028 19.0201L26.708 24.546Z" fill="white"/>
</svg>
