<svg width="33" height="34" viewBox="0 0 33 34" fill="none" xmlns="http://www.w3.org/2000/svg">
<path d="M27.253 15.645H5.36939C4.65625 15.645 4.07812 16.2213 4.07812 16.9323V17.0678C4.07812 17.7787 4.65625 18.355 5.36939 18.355H27.253C27.9661 18.355 28.5442 17.7787 28.5442 17.0678V16.9323C28.5442 16.2213 27.9661 15.645 27.253 15.645Z" fill="white"/>
<path d="M27.253 22.4199H5.36939C4.65625 22.4199 4.07812 22.9962 4.07812 23.7072V23.8427C4.07812 24.5536 4.65625 25.1299 5.36939 25.1299H27.253C27.9661 25.1299 28.5442 24.5536 28.5442 23.8427V23.7072C28.5442 22.9962 27.9661 22.4199 27.253 22.4199Z" fill="white"/>
<path d="M27.253 8.87012H5.36939C4.65625 8.87012 4.07812 9.44644 4.07812 10.1574V10.2929C4.07812 11.0038 4.65625 11.5801 5.36939 11.5801H27.253C27.9661 11.5801 28.5442 11.0038 28.5442 10.2929V10.1574C28.5442 9.44644 27.9661 8.87012 27.253 8.87012Z" fill="white"/>
</svg>
