<svg width="38" height="38" viewBox="0 0 38 38" fill="none" xmlns="http://www.w3.org/2000/svg">
<path fill-rule="evenodd" clip-rule="evenodd" d="M19.1292 21.1512L19.066 21.1525C19.0642 21.1525 19.0186 21.1539 19.0171 21.1539L18.8697 21.1512C15.4849 21.1512 11.3586 21.9136 10.9243 25.5464C10.9188 25.6294 10.913 26.02 10.9068 26.3844L10.9057 26.4351C13.1962 27.9414 15.9136 28.7138 18.9993 28.7138C22.0071 28.7138 24.7929 27.9204 27.0932 26.4314C27.0863 26.052 27.0801 25.6307 27.0721 25.5294C26.6408 21.9136 22.5143 21.1512 19.1292 21.1512ZM38 12.7543C38.0014 12.1573 37.9274 11.5713 37.7219 11.0049C37.1231 9.35348 36.117 7.9835 34.4302 7.0931C30.5122 5.02566 26.5902 2.96394 22.6804 0.88293C21.6178 0.317245 20.4855 0.0325726 19.2682 0.00294384C17.9269 -0.0287236 16.6518 0.191946 15.4725 0.817972C11.526 2.90973 7.55628 4.96676 3.62835 7.08651C1.28606 8.35085 0.0533522 10.295 0.0245803 12.7783C-0.0228569 16.9308 0.013633 21.0826 0.00998418 25.2349C0.00961921 25.8746 0.0961007 26.4992 0.327811 27.1026C0.945593 28.7077 1.94502 30.039 3.59697 30.9084C7.485 32.9545 11.3738 34.9989 15.2486 37.0643C16.266 37.6074 17.3392 37.9284 18.5087 37.9867C19.9369 38.0584 21.2962 37.8467 22.5547 37.179C26.4741 35.1007 30.395 33.0245 34.3287 30.9668C35.4256 30.3915 36.2726 29.6102 36.9162 28.6318C37.5373 27.6884 37.9755 26.6804 37.9861 25.5653C38.0062 23.3779 37.9923 21.1901 37.9923 19.0028H37.9985C37.9974 16.9194 37.9949 14.836 37.9996 12.7546L38 12.7543ZM19.0003 7.77946C22.1822 7.77946 24.4041 9.94153 24.4041 13.0376C24.4041 16.2917 21.9797 18.9398 19.0003 18.9398C16.0208 18.9398 13.5964 16.2924 13.5964 13.0376C13.5964 9.94222 15.8183 7.77946 19.0003 7.77946ZM28.7435 26.8632C28.7416 26.8888 28.7405 26.9148 28.7365 26.9402C28.7318 26.9659 28.7241 26.9895 28.7172 27.0142C28.7106 27.0369 28.7044 27.0592 28.6957 27.0812C28.6858 27.1052 28.6734 27.1272 28.6617 27.1499C28.6504 27.1712 28.6391 27.1925 28.626 27.2125C28.6114 27.2339 28.5949 27.2535 28.5774 27.2735C28.5617 27.2925 28.5471 27.3112 28.5293 27.3285C28.5081 27.3499 28.4837 27.3685 28.4599 27.3875C28.4468 27.3979 28.4355 27.4102 28.4213 27.4202C28.4158 27.4242 28.4099 27.4275 28.4037 27.4309C28.3983 27.4349 28.3928 27.4382 28.3873 27.4412C25.7432 29.2572 22.4993 30.2183 19.001 30.2183C15.4125 30.2183 12.2536 29.2822 9.60993 27.4396C9.60518 27.4369 9.6008 27.4339 9.59715 27.4309C9.58949 27.4262 9.58219 27.4219 9.57489 27.4172C9.55993 27.4069 9.54862 27.3936 9.53439 27.3826C9.51177 27.3646 9.48914 27.3469 9.46907 27.3262C9.45156 27.3086 9.4366 27.2902 9.42091 27.2712C9.40412 27.2509 9.38733 27.2309 9.37274 27.2092C9.3596 27.1889 9.34829 27.1679 9.33734 27.1469C9.32567 27.1236 9.31289 27.1012 9.30341 27.0772C9.29428 27.0552 9.28881 27.0329 9.28224 27.0106C9.27531 26.9859 9.26801 26.9619 9.26327 26.9362C9.25889 26.9106 9.25816 26.8852 9.25633 26.8589C9.25524 26.8412 9.25123 26.8242 9.25159 26.8056L9.25998 26.3602C9.27239 25.6342 9.27677 25.4695 9.28735 25.3835C9.72925 21.684 13.1323 19.646 18.8699 19.646L18.979 19.6477L19.129 19.646C24.8663 19.646 28.2698 21.6834 28.7106 25.3829C28.7215 25.4766 28.727 25.6859 28.7412 26.508L28.7467 26.8067C28.7492 26.8264 28.7445 26.8444 28.7434 26.8634L28.7435 26.8632ZM19.0003 17.4344C21.0715 17.4344 22.7569 15.462 22.7569 13.0369C22.7569 10.7918 21.247 9.28351 19.0003 9.28351C16.7535 9.28351 15.2436 10.7923 15.2436 13.0369C15.2436 15.462 16.9287 17.4344 19.0003 17.4344Z" fill="white"/>
</svg>
