<svg width="114" height="16" viewBox="0 0 114 16" fill="none" xmlns="http://www.w3.org/2000/svg">
<mask id="path-1-outside-1_7_58" maskUnits="userSpaceOnUse" x="-1" y="-1" width="117" height="18" fill="black">
<rect fill="white" x="-1" y="-1" width="117" height="18"/>
<path d="M11.4 11.43C11.5667 11.43 11.7067 11.49 11.82 11.61L13.01 12.88C12.4233 13.6267 11.6933 14.1933 10.82 14.58C9.95333 14.9667 8.92 15.16 7.72 15.16C6.63333 15.16 5.65667 14.9767 4.79 14.61C3.92333 14.2367 3.18667 13.72 2.58 13.06C1.97333 12.4 1.50667 11.6167 1.18 10.71C0.853333 9.80333 0.69 8.81333 0.69 7.74C0.69 7.02 0.766667 6.33667 0.92 5.69C1.08 5.03667 1.31 4.43667 1.61 3.89C1.91 3.34333 2.27 2.85 2.69 2.41C3.11667 1.97 3.59667 1.59667 4.13 1.29C4.66333 0.976666 5.24333 0.739999 5.87 0.58C6.50333 0.413332 7.17667 0.329999 7.89 0.329999C8.42333 0.329999 8.92667 0.376666 9.4 0.469999C9.88 0.563333 10.3267 0.693333 10.74 0.86C11.1533 1.02667 11.5333 1.23 11.88 1.47C12.2333 1.70333 12.55 1.96 12.83 2.24L11.82 3.62C11.76 3.70667 11.6833 3.78333 11.59 3.85C11.4967 3.91667 11.37 3.95 11.21 3.95C11.05 3.95 10.8867 3.89333 10.72 3.78C10.56 3.66667 10.36 3.54 10.12 3.4C9.88667 3.26 9.59 3.13333 9.23 3.02C8.87667 2.90667 8.42667 2.85 7.88 2.85C7.27333 2.85 6.71667 2.96 6.21 3.18C5.70333 3.4 5.26667 3.72 4.9 4.14C4.54 4.55333 4.26 5.06333 4.06 5.67C3.86 6.27667 3.76 6.96667 3.76 7.74C3.76 8.52 3.86667 9.21667 4.08 9.83C4.3 10.4367 4.59667 10.95 4.97 11.37C5.35 11.79 5.79 12.11 6.29 12.33C6.79667 12.5433 7.33667 12.65 7.91 12.65C8.25 12.65 8.55667 12.6333 8.83 12.6C9.11 12.5667 9.36667 12.51 9.6 12.43C9.84 12.35 10.0633 12.2467 10.27 12.12C10.4833 11.9933 10.6967 11.8333 10.91 11.64C10.9833 11.58 11.06 11.53 11.14 11.49C11.22 11.45 11.3067 11.43 11.4 11.43ZM30.6111 7.74C30.6111 8.8 30.4311 9.78333 30.0711 10.69C29.7178 11.5967 29.2144 12.38 28.5611 13.04C27.9144 13.7 27.1344 14.22 26.2211 14.6C25.3078 14.9733 24.2944 15.16 23.1811 15.16C22.0678 15.16 21.0544 14.9733 20.1411 14.6C19.2278 14.22 18.4444 13.7 17.7911 13.04C17.1378 12.38 16.6311 11.5967 16.2711 10.69C15.9178 9.78333 15.7411 8.8 15.7411 7.74C15.7411 6.68 15.9178 5.7 16.2711 4.8C16.6311 3.89333 17.1378 3.11 17.7911 2.45C18.4444 1.79 19.2278 1.27333 20.1411 0.899999C21.0544 0.519999 22.0678 0.329999 23.1811 0.329999C24.2944 0.329999 25.3078 0.519999 26.2211 0.899999C27.1344 1.27333 27.9144 1.79333 28.5611 2.46C29.2144 3.12 29.7178 3.90333 30.0711 4.81C30.4311 5.71 30.6111 6.68667 30.6111 7.74ZM27.5411 7.74C27.5411 6.98 27.4411 6.3 27.2411 5.7C27.0411 5.09333 26.7511 4.58 26.3711 4.16C25.9978 3.73333 25.5411 3.41 25.0011 3.19C24.4678 2.96333 23.8611 2.85 23.1811 2.85C22.5011 2.85 21.8911 2.96333 21.3511 3.19C20.8111 3.41 20.3511 3.73333 19.9711 4.16C19.5978 4.58 19.3111 5.09333 19.1111 5.7C18.9111 6.3 18.8111 6.98 18.8111 7.74C18.8111 8.50667 18.9111 9.19333 19.1111 9.8C19.3111 10.4 19.5978 10.91 19.9711 11.33C20.3511 11.75 20.8111 12.0733 21.3511 12.3C21.8911 12.52 22.5011 12.63 23.1811 12.63C23.8611 12.63 24.4678 12.52 25.0011 12.3C25.5411 12.0733 25.9978 11.75 26.3711 11.33C26.7511 10.91 27.0411 10.4 27.2411 9.8C27.4411 9.19333 27.5411 8.50667 27.5411 7.74ZM51.002 0.489999V15H48.352V6.09C48.352 5.90333 48.3554 5.70333 48.362 5.49C48.3754 5.27667 48.3954 5.06 48.422 4.84L44.272 12.71C44.0454 13.1433 43.6954 13.36 43.222 13.36H42.802C42.5687 13.36 42.362 13.3067 42.182 13.2C42.002 13.0867 41.8587 12.9233 41.752 12.71L37.582 4.81C37.602 5.04333 37.6187 5.27 37.632 5.49C37.6454 5.70333 37.652 5.90333 37.652 6.09V15H35.002V0.489999H37.282C37.4087 0.489999 37.522 0.493333 37.622 0.5C37.722 0.506666 37.8087 0.526665 37.882 0.559999C37.962 0.586666 38.032 0.633333 38.092 0.699999C38.1587 0.759999 38.222 0.846666 38.282 0.96L42.342 8.7C42.4687 8.93333 42.5854 9.17333 42.692 9.42C42.8054 9.66667 42.912 9.92 43.012 10.18C43.112 9.91333 43.2154 9.65333 43.322 9.4C43.4354 9.14667 43.5554 8.90333 43.682 8.67L47.712 0.96C47.772 0.846666 47.8354 0.759999 47.902 0.699999C47.9687 0.633333 48.0387 0.586666 48.112 0.559999C48.192 0.526665 48.2787 0.506666 48.372 0.5C48.472 0.493333 48.5887 0.489999 48.722 0.489999H51.002ZM61.1255 7.71C62.0655 7.71 62.7521 7.48333 63.1855 7.03C63.6255 6.57667 63.8455 5.95667 63.8455 5.17C63.8455 4.81 63.7888 4.48333 63.6755 4.19C63.5688 3.89 63.4021 3.63667 63.1755 3.43C62.9555 3.21667 62.6755 3.05333 62.3355 2.94C61.9955 2.82667 61.5921 2.77 61.1255 2.77H59.2255V7.71H61.1255ZM61.1255 0.489999C62.1188 0.489999 62.9755 0.606666 63.6955 0.84C64.4221 1.07333 65.0188 1.4 65.4855 1.82C65.9521 2.23333 66.2955 2.72667 66.5155 3.3C66.7421 3.87333 66.8555 4.49667 66.8555 5.17C66.8555 5.88333 66.7388 6.53667 66.5055 7.13C66.2721 7.72333 65.9188 8.23333 65.4455 8.66C64.9721 9.08667 64.3755 9.42 63.6555 9.66C62.9355 9.89333 62.0921 10.01 61.1255 10.01H59.2255V15H56.2255V0.489999H61.1255ZM75.5045 7.36C75.9912 7.36 76.4112 7.3 76.7645 7.18C77.1179 7.05333 77.4079 6.88333 77.6345 6.67C77.8612 6.45 78.0279 6.19333 78.1345 5.9C78.2412 5.60667 78.2945 5.28667 78.2945 4.94C78.2945 4.25333 78.0645 3.72 77.6045 3.34C77.1512 2.96 76.4579 2.77 75.5245 2.77H73.9645V7.36H75.5045ZM82.5345 15H79.8245C79.3179 15 78.9512 14.8067 78.7245 14.42L75.9645 9.97C75.8512 9.79667 75.7245 9.67 75.5845 9.59C75.4512 9.51 75.2512 9.47 74.9845 9.47H73.9645V15H70.9645V0.489999H75.5245C76.5379 0.489999 77.4045 0.596666 78.1245 0.81C78.8445 1.01667 79.4345 1.30667 79.8945 1.68C80.3545 2.05333 80.6912 2.5 80.9045 3.02C81.1179 3.53333 81.2245 4.1 81.2245 4.72C81.2245 5.2 81.1545 5.65667 81.0145 6.09C80.8812 6.51667 80.6845 6.90667 80.4245 7.26C80.1645 7.61333 79.8445 7.92667 79.4645 8.2C79.0845 8.47333 78.6512 8.69333 78.1645 8.86C78.3579 8.96667 78.5379 9.09667 78.7045 9.25C78.8712 9.39667 79.0212 9.57333 79.1545 9.78L82.5345 15ZM93.8128 9.49L92.2428 5.05C92.1495 4.81667 92.0495 4.54333 91.9428 4.23C91.8428 3.91667 91.7461 3.57667 91.6528 3.21C91.5595 3.58333 91.4595 3.93 91.3528 4.25C91.2528 4.56333 91.1561 4.83667 91.0628 5.07L89.5028 9.49H93.8128ZM98.8528 15H96.5228C96.2628 15 96.0495 14.94 95.8828 14.82C95.7228 14.6933 95.6028 14.5333 95.5228 14.34L94.5428 11.57H88.7628L87.7828 14.34C87.7161 14.5067 87.5995 14.66 87.4328 14.8C87.2661 14.9333 87.0561 15 86.8028 15H84.4528L90.1228 0.489999H93.1928L98.8528 15ZM106.936 7.36C107.422 7.36 107.842 7.3 108.196 7.18C108.549 7.05333 108.839 6.88333 109.066 6.67C109.292 6.45 109.459 6.19333 109.566 5.9C109.672 5.60667 109.726 5.28667 109.726 4.94C109.726 4.25333 109.496 3.72 109.036 3.34C108.582 2.96 107.889 2.77 106.956 2.77H105.396V7.36H106.936ZM113.966 15H111.256C110.749 15 110.382 14.8067 110.156 14.42L107.396 9.97C107.282 9.79667 107.156 9.67 107.016 9.59C106.882 9.51 106.682 9.47 106.416 9.47H105.396V15H102.396V0.489999H106.956C107.969 0.489999 108.836 0.596666 109.556 0.81C110.276 1.01667 110.866 1.30667 111.326 1.68C111.786 2.05333 112.122 2.5 112.336 3.02C112.549 3.53333 112.656 4.1 112.656 4.72C112.656 5.2 112.586 5.65667 112.446 6.09C112.312 6.51667 112.116 6.90667 111.856 7.26C111.596 7.61333 111.276 7.92667 110.896 8.2C110.516 8.47333 110.082 8.69333 109.596 8.86C109.789 8.96667 109.969 9.09667 110.136 9.25C110.302 9.39667 110.452 9.57333 110.586 9.78L113.966 15Z"/>
</mask>
<path d="M11.4 11.43C11.5667 11.43 11.7067 11.49 11.82 11.61L13.01 12.88C12.4233 13.6267 11.6933 14.1933 10.82 14.58C9.95333 14.9667 8.92 15.16 7.72 15.16C6.63333 15.16 5.65667 14.9767 4.79 14.61C3.92333 14.2367 3.18667 13.72 2.58 13.06C1.97333 12.4 1.50667 11.6167 1.18 10.71C0.853333 9.80333 0.69 8.81333 0.69 7.74C0.69 7.02 0.766667 6.33667 0.92 5.69C1.08 5.03667 1.31 4.43667 1.61 3.89C1.91 3.34333 2.27 2.85 2.69 2.41C3.11667 1.97 3.59667 1.59667 4.13 1.29C4.66333 0.976666 5.24333 0.739999 5.87 0.58C6.50333 0.413332 7.17667 0.329999 7.89 0.329999C8.42333 0.329999 8.92667 0.376666 9.4 0.469999C9.88 0.563333 10.3267 0.693333 10.74 0.86C11.1533 1.02667 11.5333 1.23 11.88 1.47C12.2333 1.70333 12.55 1.96 12.83 2.24L11.82 3.62C11.76 3.70667 11.6833 3.78333 11.59 3.85C11.4967 3.91667 11.37 3.95 11.21 3.95C11.05 3.95 10.8867 3.89333 10.72 3.78C10.56 3.66667 10.36 3.54 10.12 3.4C9.88667 3.26 9.59 3.13333 9.23 3.02C8.87667 2.90667 8.42667 2.85 7.88 2.85C7.27333 2.85 6.71667 2.96 6.21 3.18C5.70333 3.4 5.26667 3.72 4.9 4.14C4.54 4.55333 4.26 5.06333 4.06 5.67C3.86 6.27667 3.76 6.96667 3.76 7.74C3.76 8.52 3.86667 9.21667 4.08 9.83C4.3 10.4367 4.59667 10.95 4.97 11.37C5.35 11.79 5.79 12.11 6.29 12.33C6.79667 12.5433 7.33667 12.65 7.91 12.65C8.25 12.65 8.55667 12.6333 8.83 12.6C9.11 12.5667 9.36667 12.51 9.6 12.43C9.84 12.35 10.0633 12.2467 10.27 12.12C10.4833 11.9933 10.6967 11.8333 10.91 11.64C10.9833 11.58 11.06 11.53 11.14 11.49C11.22 11.45 11.3067 11.43 11.4 11.43ZM30.6111 7.74C30.6111 8.8 30.4311 9.78333 30.0711 10.69C29.7178 11.5967 29.2144 12.38 28.5611 13.04C27.9144 13.7 27.1344 14.22 26.2211 14.6C25.3078 14.9733 24.2944 15.16 23.1811 15.16C22.0678 15.16 21.0544 14.9733 20.1411 14.6C19.2278 14.22 18.4444 13.7 17.7911 13.04C17.1378 12.38 16.6311 11.5967 16.2711 10.69C15.9178 9.78333 15.7411 8.8 15.7411 7.74C15.7411 6.68 15.9178 5.7 16.2711 4.8C16.6311 3.89333 17.1378 3.11 17.7911 2.45C18.4444 1.79 19.2278 1.27333 20.1411 0.899999C21.0544 0.519999 22.0678 0.329999 23.1811 0.329999C24.2944 0.329999 25.3078 0.519999 26.2211 0.899999C27.1344 1.27333 27.9144 1.79333 28.5611 2.46C29.2144 3.12 29.7178 3.90333 30.0711 4.81C30.4311 5.71 30.6111 6.68667 30.6111 7.74ZM27.5411 7.74C27.5411 6.98 27.4411 6.3 27.2411 5.7C27.0411 5.09333 26.7511 4.58 26.3711 4.16C25.9978 3.73333 25.5411 3.41 25.0011 3.19C24.4678 2.96333 23.8611 2.85 23.1811 2.85C22.5011 2.85 21.8911 2.96333 21.3511 3.19C20.8111 3.41 20.3511 3.73333 19.9711 4.16C19.5978 4.58 19.3111 5.09333 19.1111 5.7C18.9111 6.3 18.8111 6.98 18.8111 7.74C18.8111 8.50667 18.9111 9.19333 19.1111 9.8C19.3111 10.4 19.5978 10.91 19.9711 11.33C20.3511 11.75 20.8111 12.0733 21.3511 12.3C21.8911 12.52 22.5011 12.63 23.1811 12.63C23.8611 12.63 24.4678 12.52 25.0011 12.3C25.5411 12.0733 25.9978 11.75 26.3711 11.33C26.7511 10.91 27.0411 10.4 27.2411 9.8C27.4411 9.19333 27.5411 8.50667 27.5411 7.74ZM51.002 0.489999V15H48.352V6.09C48.352 5.90333 48.3554 5.70333 48.362 5.49C48.3754 5.27667 48.3954 5.06 48.422 4.84L44.272 12.71C44.0454 13.1433 43.6954 13.36 43.222 13.36H42.802C42.5687 13.36 42.362 13.3067 42.182 13.2C42.002 13.0867 41.8587 12.9233 41.752 12.71L37.582 4.81C37.602 5.04333 37.6187 5.27 37.632 5.49C37.6454 5.70333 37.652 5.90333 37.652 6.09V15H35.002V0.489999H37.282C37.4087 0.489999 37.522 0.493333 37.622 0.5C37.722 0.506666 37.8087 0.526665 37.882 0.559999C37.962 0.586666 38.032 0.633333 38.092 0.699999C38.1587 0.759999 38.222 0.846666 38.282 0.96L42.342 8.7C42.4687 8.93333 42.5854 9.17333 42.692 9.42C42.8054 9.66667 42.912 9.92 43.012 10.18C43.112 9.91333 43.2154 9.65333 43.322 9.4C43.4354 9.14667 43.5554 8.90333 43.682 8.67L47.712 0.96C47.772 0.846666 47.8354 0.759999 47.902 0.699999C47.9687 0.633333 48.0387 0.586666 48.112 0.559999C48.192 0.526665 48.2787 0.506666 48.372 0.5C48.472 0.493333 48.5887 0.489999 48.722 0.489999H51.002ZM61.1255 7.71C62.0655 7.71 62.7521 7.48333 63.1855 7.03C63.6255 6.57667 63.8455 5.95667 63.8455 5.17C63.8455 4.81 63.7888 4.48333 63.6755 4.19C63.5688 3.89 63.4021 3.63667 63.1755 3.43C62.9555 3.21667 62.6755 3.05333 62.3355 2.94C61.9955 2.82667 61.5921 2.77 61.1255 2.77H59.2255V7.71H61.1255ZM61.1255 0.489999C62.1188 0.489999 62.9755 0.606666 63.6955 0.84C64.4221 1.07333 65.0188 1.4 65.4855 1.82C65.9521 2.23333 66.2955 2.72667 66.5155 3.3C66.7421 3.87333 66.8555 4.49667 66.8555 5.17C66.8555 5.88333 66.7388 6.53667 66.5055 7.13C66.2721 7.72333 65.9188 8.23333 65.4455 8.66C64.9721 9.08667 64.3755 9.42 63.6555 9.66C62.9355 9.89333 62.0921 10.01 61.1255 10.01H59.2255V15H56.2255V0.489999H61.1255ZM75.5045 7.36C75.9912 7.36 76.4112 7.3 76.7645 7.18C77.1179 7.05333 77.4079 6.88333 77.6345 6.67C77.8612 6.45 78.0279 6.19333 78.1345 5.9C78.2412 5.60667 78.2945 5.28667 78.2945 4.94C78.2945 4.25333 78.0645 3.72 77.6045 3.34C77.1512 2.96 76.4579 2.77 75.5245 2.77H73.9645V7.36H75.5045ZM82.5345 15H79.8245C79.3179 15 78.9512 14.8067 78.7245 14.42L75.9645 9.97C75.8512 9.79667 75.7245 9.67 75.5845 9.59C75.4512 9.51 75.2512 9.47 74.9845 9.47H73.9645V15H70.9645V0.489999H75.5245C76.5379 0.489999 77.4045 0.596666 78.1245 0.81C78.8445 1.01667 79.4345 1.30667 79.8945 1.68C80.3545 2.05333 80.6912 2.5 80.9045 3.02C81.1179 3.53333 81.2245 4.1 81.2245 4.72C81.2245 5.2 81.1545 5.65667 81.0145 6.09C80.8812 6.51667 80.6845 6.90667 80.4245 7.26C80.1645 7.61333 79.8445 7.92667 79.4645 8.2C79.0845 8.47333 78.6512 8.69333 78.1645 8.86C78.3579 8.96667 78.5379 9.09667 78.7045 9.25C78.8712 9.39667 79.0212 9.57333 79.1545 9.78L82.5345 15ZM93.8128 9.49L92.2428 5.05C92.1495 4.81667 92.0495 4.54333 91.9428 4.23C91.8428 3.91667 91.7461 3.57667 91.6528 3.21C91.5595 3.58333 91.4595 3.93 91.3528 4.25C91.2528 4.56333 91.1561 4.83667 91.0628 5.07L89.5028 9.49H93.8128ZM98.8528 15H96.5228C96.2628 15 96.0495 14.94 95.8828 14.82C95.7228 14.6933 95.6028 14.5333 95.5228 14.34L94.5428 11.57H88.7628L87.7828 14.34C87.7161 14.5067 87.5995 14.66 87.4328 14.8C87.2661 14.9333 87.0561 15 86.8028 15H84.4528L90.1228 0.489999H93.1928L98.8528 15ZM106.936 7.36C107.422 7.36 107.842 7.3 108.196 7.18C108.549 7.05333 108.839 6.88333 109.066 6.67C109.292 6.45 109.459 6.19333 109.566 5.9C109.672 5.60667 109.726 5.28667 109.726 4.94C109.726 4.25333 109.496 3.72 109.036 3.34C108.582 2.96 107.889 2.77 106.956 2.77H105.396V7.36H106.936ZM113.966 15H111.256C110.749 15 110.382 14.8067 110.156 14.42L107.396 9.97C107.282 9.79667 107.156 9.67 107.016 9.59C106.882 9.51 106.682 9.47 106.416 9.47H105.396V15H102.396V0.489999H106.956C107.969 0.489999 108.836 0.596666 109.556 0.81C110.276 1.01667 110.866 1.30667 111.326 1.68C111.786 2.05333 112.122 2.5 112.336 3.02C112.549 3.53333 112.656 4.1 112.656 4.72C112.656 5.2 112.586 5.65667 112.446 6.09C112.312 6.51667 112.116 6.90667 111.856 7.26C111.596 7.61333 111.276 7.92667 110.896 8.2C110.516 8.47333 110.082 8.69333 109.596 8.86C109.789 8.96667 109.969 9.09667 110.136 9.25C110.302 9.39667 110.452 9.57333 110.586 9.78L113.966 15Z" fill="white"/>
<path d="M11.82 11.61L12.5497 10.9262L12.547 10.9234L11.82 11.61ZM13.01 12.88L13.7963 13.4978L14.3267 12.8227L13.7397 12.1962L13.01 12.88ZM10.82 14.58L10.4152 13.6656L10.4126 13.6668L10.82 14.58ZM4.79 14.61L4.39437 15.5284L4.40036 15.531L4.79 14.61ZM2.58 13.06L3.31623 12.3833H3.31623L2.58 13.06ZM1.18 10.71L2.1208 10.371L1.18 10.71ZM0.92 5.69L-0.0513235 5.45212L-0.053021 5.45928L0.92 5.69ZM1.61 3.89L2.48667 4.3711L1.61 3.89ZM2.69 2.41L1.97208 1.71383L1.96664 1.71952L2.69 2.41ZM4.13 1.29L4.62849 2.15694L4.63655 2.15221L4.13 1.29ZM5.87 0.58L6.11739 1.54894L6.12449 1.54707L5.87 0.58ZM9.4 0.469999L9.20654 1.45111L9.20913 1.45161L9.4 0.469999ZM10.74 0.86L10.366 1.78744L10.366 1.78744L10.74 0.86ZM11.88 1.47L11.3108 2.29219L11.3198 2.29843L11.3289 2.30446L11.88 1.47ZM12.83 2.24L13.637 2.8306L14.1432 2.13895L13.5371 1.53289L12.83 2.24ZM11.82 3.62L11.013 3.0294L11.0053 3.03999L10.9978 3.05079L11.82 3.62ZM11.59 3.85L11.0088 3.03626L11.0088 3.03627L11.59 3.85ZM10.72 3.78L10.142 4.59602L10.1498 4.60155L10.1577 4.60692L10.72 3.78ZM10.12 3.4L9.60547 4.25756L9.61613 4.26378L10.12 3.4ZM9.23 3.02L8.92457 3.97223L8.92972 3.97385L9.23 3.02ZM6.21 3.18L6.60828 4.09726H6.60829L6.21 3.18ZM4.9 4.14L4.14668 3.48234L4.14592 3.48322L4.9 4.14ZM4.06 5.67L5.00972 5.9831V5.98309L4.06 5.67ZM4.08 9.83L3.13542 10.1585L3.13991 10.1709L4.08 9.83ZM4.97 11.37L4.22256 12.0344L4.22846 12.0409L4.97 11.37ZM6.29 12.33L5.88726 13.2453L5.89458 13.2485L5.90194 13.2516L6.29 12.33ZM8.83 12.6L8.71179 11.607L8.70895 11.6074L8.83 12.6ZM9.6 12.43L9.28376 11.4813L9.27568 11.4841L9.6 12.43ZM10.27 12.12L9.75941 11.2601L9.74744 11.2674L10.27 12.12ZM10.91 11.64L10.2768 10.866L10.2572 10.882L10.2385 10.899L10.91 11.64ZM11.14 11.49L11.5872 12.3844L11.5872 12.3844L11.14 11.49ZM11.4 12.43C11.3608 12.43 11.3019 12.4223 11.2361 12.3941C11.1701 12.3659 11.1223 12.3277 11.093 12.2966L12.547 10.9234C12.2427 10.6012 11.8388 10.43 11.4 10.43V12.43ZM11.0903 12.2937L12.2803 13.5638L13.7397 12.1962L12.5497 10.9262L11.0903 12.2937ZM12.2237 12.2622C11.7386 12.8795 11.1399 13.3447 10.4152 13.6656L11.2248 15.4944C12.2468 15.0419 13.108 14.3738 13.7963 13.4978L12.2237 12.2622ZM10.4126 13.6668C9.70326 13.9832 8.81548 14.16 7.72 14.16V16.16C9.02452 16.16 10.2034 15.9501 11.2274 15.4932L10.4126 13.6668ZM7.72 14.16C6.74667 14.16 5.90543 13.9961 5.17964 13.689L4.40036 15.531C5.4079 15.9572 6.52 16.16 7.72 16.16V14.16ZM5.18562 13.6916C4.44129 13.371 3.82265 12.9342 3.31623 12.3833L1.84377 13.7367C2.55069 14.5058 3.40538 15.1024 4.39438 15.5284L5.18562 13.6916ZM3.31623 12.3833C2.80611 11.8283 2.40582 11.1621 2.1208 10.371L0.239201 11.049C0.607511 12.0712 1.14056 12.9717 1.84377 13.7367L3.31623 12.3833ZM2.1208 10.371C1.8375 9.58473 1.69 8.71084 1.69 7.74H-0.31C-0.31 8.91583 -0.130832 10.0219 0.239201 11.049L2.1208 10.371ZM1.69 7.74C1.69 7.09128 1.75903 6.4858 1.89302 5.92072L-0.053021 5.45928C-0.225699 6.18754 -0.31 6.94871 -0.31 7.74H1.69ZM1.8913 5.92787C2.03214 5.35277 2.23186 4.83541 2.48667 4.3711L0.733333 3.4089C0.388137 4.03793 0.127861 4.72057 -0.0512972 5.45213L1.8913 5.92787ZM2.48667 4.3711C2.74593 3.89866 3.05484 3.47607 3.41336 3.10048L1.96664 1.71952C1.48516 2.22393 1.07407 2.78801 0.733333 3.4089L2.48667 4.3711ZM3.4079 3.10615C3.76948 2.73326 4.17557 2.41733 4.62847 2.15691L3.63153 0.423093C3.01777 0.776006 2.46385 1.20674 1.9721 1.71385L3.4079 3.10615ZM4.63655 2.15221C5.08531 1.88856 5.57752 1.68675 6.11738 1.54892L5.62262 -0.388918C4.90914 -0.206755 4.24136 0.0647678 3.62345 0.427788L4.63655 2.15221ZM6.12449 1.54707C6.66773 1.40412 7.25497 1.33 7.89 1.33V-0.670001C7.09836 -0.670001 6.33894 -0.577451 5.61551 -0.387075L6.12449 1.54707ZM7.89 1.33C8.3651 1.33 8.8032 1.37157 9.20654 1.45111L9.59346 -0.511109C9.05014 -0.618243 8.48156 -0.670001 7.89 -0.670001V1.33ZM9.20913 1.45161C9.63249 1.53393 10.0173 1.64681 10.366 1.78744L11.114 -0.0674418C10.6361 -0.26014 10.1275 -0.407269 9.59087 -0.511616L9.20913 1.45161ZM10.366 1.78744C10.7145 1.92795 11.0285 2.09674 11.3108 2.29219L12.4492 0.647807C12.0382 0.363264 11.5922 0.125386 11.114 -0.0674421L10.366 1.78744ZM11.3289 2.30446C11.63 2.50325 11.8936 2.71786 12.1229 2.94711L13.5371 1.53289C13.2064 1.20214 12.8367 0.903415 12.4311 0.635535L11.3289 2.30446ZM12.023 1.6494L11.013 3.0294L12.627 4.2106L13.637 2.8306L12.023 1.6494ZM10.9978 3.05079C11.0029 3.04341 11.0075 3.03827 11.0104 3.03539C11.0132 3.03261 11.0132 3.03311 11.0088 3.03626L12.1712 4.66373C12.3501 4.53596 12.511 4.37867 12.6422 4.18921L10.9978 3.05079ZM11.0088 3.03627C11.1402 2.94238 11.2416 2.95 11.21 2.95V4.95C11.4984 4.95 11.8531 4.89095 12.1712 4.66373L11.0088 3.03627ZM11.21 2.95C11.2502 2.95 11.28 2.95745 11.2953 2.96274C11.309 2.96751 11.3047 2.96829 11.2823 2.95307L10.1577 4.60692C10.4471 4.80371 10.803 4.95 11.21 4.95V2.95ZM11.298 2.96397C11.1064 2.82827 10.8797 2.68548 10.6239 2.53622L9.61613 4.26378C9.84026 4.39452 10.0136 4.50506 10.142 4.59602L11.298 2.96397ZM10.6345 2.54251C10.3135 2.34992 9.93869 2.19472 9.53029 2.06615L8.92972 3.97385C9.24131 4.07194 9.45982 4.17008 9.6055 4.25749L10.6345 2.54251ZM9.53543 2.06778C9.0486 1.91163 8.48609 1.85 7.88 1.85V3.85C8.36724 3.85 8.70473 3.9017 8.92457 3.97221L9.53543 2.06778ZM7.88 1.85C7.14987 1.85 6.45594 1.98301 5.81172 2.26274L6.60829 4.09726C6.97739 3.93699 7.3968 3.85 7.88 3.85V1.85ZM5.81172 2.26274C5.16759 2.54242 4.61002 2.95161 4.14668 3.48234L5.65332 4.79766C5.92332 4.48838 6.23907 4.25758 6.60828 4.09726L5.81172 2.26274ZM4.14592 3.48322C3.68524 4.01215 3.34515 4.64445 3.11028 5.3569L5.00972 5.98309C5.17485 5.48221 5.39476 5.09452 5.65408 4.79678L4.14592 3.48322ZM3.11028 5.3569C2.87081 6.08328 2.76 6.88194 2.76 7.74H4.76C4.76 7.0514 4.84919 6.47005 5.00972 5.9831L3.11028 5.3569ZM2.76 7.74C2.76 8.61001 2.87888 9.42074 3.1355 10.1585L5.0245 9.50148C4.85445 9.01259 4.76 8.42999 4.76 7.74H2.76ZM3.13991 10.1709C3.39674 10.8791 3.7536 11.5068 4.22259 12.0344L5.71741 10.7056C5.43973 10.3932 5.20326 9.99419 5.02009 9.48909L3.13991 10.1709ZM4.22846 12.0409C4.69936 12.5614 5.2536 12.9665 5.88726 13.2453L6.69274 11.4147C6.3264 11.2535 6.00064 11.0186 5.71154 10.6991L4.22846 12.0409ZM5.90194 13.2516C6.53671 13.5189 7.20921 13.65 7.91 13.65V11.65C7.46412 11.65 7.05663 11.5678 6.67806 11.4084L5.90194 13.2516ZM7.91 13.65C8.28149 13.65 8.62954 13.6319 8.95105 13.5926L8.70895 11.6074C8.4838 11.6348 8.21851 11.65 7.91 11.65V13.65ZM8.94821 13.593C9.28862 13.5525 9.61544 13.4818 9.92432 13.3759L9.27568 11.4841C9.1179 11.5381 8.93138 11.5809 8.71179 11.607L8.94821 13.593ZM9.91623 13.3787C10.2253 13.2757 10.5182 13.1407 10.7926 12.9726L9.74744 11.2674C9.60844 11.3526 9.45471 11.4243 9.28377 11.4813L9.91623 13.3787ZM10.7805 12.9799C11.0597 12.8141 11.3263 12.6123 11.5815 12.381L10.2385 10.899C10.067 11.0544 9.90701 11.1725 9.75946 11.2601L10.7805 12.9799ZM11.5432 12.414C11.5626 12.3981 11.5773 12.3894 11.5872 12.3844L10.6928 10.5956C10.5427 10.6706 10.4041 10.7619 10.2768 10.866L11.5432 12.414ZM11.5872 12.3844C11.5223 12.4169 11.455 12.43 11.4 12.43V10.43C11.1584 10.43 10.9177 10.4831 10.6928 10.5956L11.5872 12.3844ZM30.0711 10.69L29.1417 10.321L29.1393 10.3269L30.0711 10.69ZM28.5611 13.04L27.8504 12.3365L27.8468 12.3401L28.5611 13.04ZM26.2211 14.6L26.5995 15.5257L26.6052 15.5233L26.2211 14.6ZM20.1411 14.6L19.757 15.5233L19.7627 15.5257L20.1411 14.6ZM17.7911 13.04L18.5018 12.3365L17.7911 13.04ZM16.2711 10.69L15.3393 11.0531L15.3417 11.059L16.2711 10.69ZM16.2711 4.8L15.3417 4.43096L15.3403 4.43456L16.2711 4.8ZM17.7911 2.45L17.0804 1.74649V1.74649L17.7911 2.45ZM20.1411 0.899999L20.5195 1.82567L20.5252 1.82328L20.1411 0.899999ZM26.2211 0.899999L25.8369 1.82329L25.8427 1.82565L26.2211 0.899999ZM28.5611 2.46L27.8433 3.15629L27.8504 3.16351L28.5611 2.46ZM30.0711 4.81L29.1393 5.17312L29.1426 5.18139L30.0711 4.81ZM27.2411 5.7L26.2914 6.0131L26.2924 6.01623L27.2411 5.7ZM26.3711 4.16L25.6185 4.8185L25.624 4.82475L25.6296 4.83091L26.3711 4.16ZM25.0011 3.19L24.61 4.11033L24.6169 4.11326L24.6238 4.11609L25.0011 3.19ZM21.3511 3.19L21.7284 4.11614L21.7381 4.11206L21.3511 3.19ZM19.9711 4.16L19.2243 3.49491L19.2237 3.49564L19.9711 4.16ZM19.1111 5.7L20.0598 6.01623L20.0608 6.01309L19.1111 5.7ZM19.1111 9.8L18.1614 10.1131L18.1624 10.1162L19.1111 9.8ZM19.9711 11.33L19.2237 11.9944L19.2296 12.0009L19.9711 11.33ZM21.3511 12.3L20.964 13.2221L20.9738 13.2261L21.3511 12.3ZM25.0011 12.3L25.3824 13.2245L25.3881 13.2221L25.0011 12.3ZM26.3711 11.33L25.6295 10.6591L25.6237 10.6656L26.3711 11.33ZM27.2411 9.8L28.1898 10.1162L28.1908 10.1131L27.2411 9.8ZM29.6111 7.74C29.6111 8.68463 29.4512 9.54155 29.1417 10.321L31.0005 11.059C31.411 10.0251 31.6111 8.91537 31.6111 7.74H29.6111ZM29.1393 10.3269C28.8332 11.1124 28.403 11.7783 27.8504 12.3365L29.2718 13.7435C30.0259 12.9817 30.6023 12.0809 31.0028 11.0531L29.1393 10.3269ZM27.8468 12.3401C27.3006 12.8976 26.6352 13.3446 25.837 13.6767L26.6052 15.5233C27.6336 15.0954 28.5283 14.5024 29.2754 13.7399L27.8468 12.3401ZM25.8427 13.6743C25.0639 13.9927 24.1813 14.16 23.1811 14.16V16.16C24.4076 16.16 25.5516 15.954 26.5995 15.5257L25.8427 13.6743ZM23.1811 14.16C22.1809 14.16 21.2982 13.9927 20.5195 13.6743L19.7627 15.5257C20.8106 15.954 21.9546 16.16 23.1811 16.16V14.16ZM20.5252 13.6767C19.7261 13.3443 19.0559 12.8963 18.5018 12.3365L17.0804 13.7435C17.8329 14.5037 18.7294 15.0957 19.757 15.5233L20.5252 13.6767ZM18.5018 12.3365C17.9479 11.7769 17.5134 11.109 17.2005 10.321L15.3417 11.059C15.7488 12.0843 16.3277 12.9831 17.0804 13.7435L18.5018 12.3365ZM17.2028 10.3269C16.8985 9.54591 16.7411 8.68691 16.7411 7.74H14.7411C14.7411 8.91309 14.937 10.0208 15.3393 11.0531L17.2028 10.3269ZM16.7411 7.74C16.7411 6.79299 16.8985 5.93829 17.2019 5.16544L15.3403 4.43456C14.937 5.46171 14.7411 6.567 14.7411 7.74H16.7411ZM17.2005 5.16903C17.5134 4.38102 17.9479 3.71308 18.5018 3.15351L17.0804 1.74649C16.3277 2.50692 15.7488 3.40565 15.3417 4.43097L17.2005 5.16903ZM18.5018 3.15351C19.0546 2.59505 19.7228 2.15129 20.5195 1.82565L19.7627 -0.0256554C18.7327 0.395378 17.8343 0.984947 17.0804 1.74649L18.5018 3.15351ZM20.5252 1.82328C21.3025 1.4999 22.1831 1.33 23.1811 1.33V-0.670001C21.9524 -0.670001 20.8064 -0.459902 19.757 -0.0232769L20.5252 1.82328ZM23.1811 1.33C24.1791 1.33 25.0597 1.4999 25.837 1.82328L26.6052 -0.0232769C25.5558 -0.459902 24.4098 -0.670001 23.1811 -0.670001V1.33ZM25.8427 1.82565C26.6364 2.15007 27.2986 2.59475 27.8433 3.15626L29.2789 1.76374C28.5302 0.991912 27.6325 0.39659 26.5995 -0.0256555L25.8427 1.82565ZM27.8504 3.16351C28.403 3.72172 28.8332 4.38761 29.1393 5.17311L31.0028 4.44689C30.6023 3.41905 30.0259 2.51828 29.2718 1.75649L27.8504 3.16351ZM29.1426 5.18139C29.4514 5.9534 29.6111 6.8028 29.6111 7.74H31.6111C31.6111 6.57053 31.4108 5.4666 30.9996 4.43861L29.1426 5.18139ZM28.5411 7.74C28.5411 6.89351 28.4298 6.10391 28.1898 5.38377L26.2924 6.01623C26.4524 6.49609 26.5411 7.06649 26.5411 7.74H28.5411ZM28.1908 5.3869C27.9527 4.66469 27.5975 4.02499 27.1126 3.48909L25.6296 4.83091C25.9047 5.13501 26.1295 5.52198 26.2914 6.01309L28.1908 5.3869ZM27.1237 3.50149C26.6448 2.95422 26.0584 2.54093 25.3784 2.26391L24.6238 4.11609C25.0238 4.27907 25.3507 4.51244 25.6185 4.8185L27.1237 3.50149ZM25.3922 2.26967C24.7157 1.98212 23.9725 1.85 23.1811 1.85V3.85C23.7497 3.85 24.2199 3.94454 24.61 4.11033L25.3922 2.26967ZM23.1811 1.85C22.3894 1.85 21.6447 1.98222 20.9641 2.26794L21.7381 4.11206C22.1375 3.94445 22.6128 3.85 23.1811 3.85V1.85ZM20.9738 2.26391C20.2953 2.54032 19.7081 2.95176 19.2243 3.49491L20.7179 4.82509C20.9941 4.5149 21.3269 4.27968 21.7284 4.11609L20.9738 2.26391ZM19.2237 3.49564C18.748 4.03073 18.3983 4.66824 18.1614 5.3869L20.0608 6.01309C20.2239 5.51843 20.4475 5.12927 20.7185 4.82436L19.2237 3.49564ZM18.1624 5.38377C17.9224 6.10391 17.8111 6.89351 17.8111 7.74H19.8111C19.8111 7.06649 19.8998 6.49609 20.0598 6.01623L18.1624 5.38377ZM17.8111 7.74C17.8111 8.59241 17.9222 9.38752 18.1614 10.1131L20.0608 9.4869C19.9 8.99915 19.8111 8.42092 19.8111 7.74H17.8111ZM18.1624 10.1162C18.3999 10.8286 18.7497 11.4612 19.2237 11.9944L20.7185 10.6656C20.4458 10.3588 20.2223 9.9714 20.0598 9.48377L18.1624 10.1162ZM19.2296 12.0009C19.7113 12.5333 20.2936 12.9407 20.9641 13.2221L21.7381 11.3779C21.3286 11.206 20.9909 10.9667 20.7126 10.6591L19.2296 12.0009ZM20.9738 13.2261C21.6518 13.5023 22.3929 13.63 23.1811 13.63V11.63C22.6093 11.63 22.1304 11.5377 21.7284 11.3739L20.9738 13.2261ZM23.1811 13.63C23.9689 13.63 24.7086 13.5024 25.3824 13.2244L24.6198 11.3756C24.227 11.5376 23.7533 11.63 23.1811 11.63V13.63ZM25.3881 13.2221C26.06 12.94 26.6416 12.5309 27.1185 11.9944L25.6237 10.6656C25.3539 10.9691 25.0222 11.2066 24.6141 11.3779L25.3881 13.2221ZM27.1126 12.0009C27.5958 11.4669 27.9511 10.8322 28.1898 10.1162L26.2924 9.48377C26.1311 9.96784 25.9064 10.3531 25.6296 10.6591L27.1126 12.0009ZM28.1908 10.1131C28.43 9.38752 28.5411 8.59241 28.5411 7.74H26.5411C26.5411 8.42092 26.4522 8.99915 26.2914 9.4869L28.1908 10.1131ZM51.002 0.489999H52.002V-0.510001H51.002V0.489999ZM51.002 15V16H52.002V15H51.002ZM48.352 15H47.352V16H48.352V15ZM48.362 5.49L47.364 5.42762L47.363 5.44318L47.3625 5.45877L48.362 5.49ZM48.422 4.84L49.4148 4.96033L47.5375 4.37356L48.422 4.84ZM44.272 12.71L43.3875 12.2436L43.3859 12.2465L44.272 12.71ZM42.182 13.2L41.6492 14.0462L41.6606 14.0534L41.6722 14.0603L42.182 13.2ZM41.752 12.71L42.6465 12.2628L42.6415 12.2529L42.6364 12.2432L41.752 12.71ZM37.582 4.81L38.4664 4.34319L36.5857 4.8954L37.582 4.81ZM37.632 5.49L36.6339 5.5505L36.634 5.55238L37.632 5.49ZM37.652 15V16H38.652V15H37.652ZM35.002 15H34.002V16H35.002V15ZM35.002 0.489999V-0.510001H34.002V0.489999H35.002ZM37.622 0.5L37.5555 1.49778L37.5555 1.49779L37.622 0.5ZM37.882 0.559999L37.4682 1.47037L37.516 1.49208L37.5658 1.50868L37.882 0.559999ZM38.092 0.699999L37.3487 1.36896L37.3839 1.40809L37.4231 1.4433L38.092 0.699999ZM38.282 0.96L39.1676 0.495476L39.1658 0.492113L38.282 0.96ZM42.342 8.7L41.4565 9.16452L41.4598 9.17083L41.4632 9.17709L42.342 8.7ZM42.692 9.42L41.7742 9.81691L41.7787 9.82726L41.7834 9.8375L42.692 9.42ZM43.012 10.18L42.0787 10.539L43.0239 12.9964L43.9484 10.5311L43.012 10.18ZM43.322 9.4L42.4092 8.99163L42.4047 9.00174L42.4004 9.01194L43.322 9.4ZM43.682 8.67L44.5609 9.14709L44.5646 9.14019L44.5683 9.13323L43.682 8.67ZM47.712 0.96L46.8282 0.492109L46.8258 0.496766L47.712 0.96ZM47.902 0.699999L48.571 1.4433L48.5905 1.4257L48.6091 1.40711L47.902 0.699999ZM48.112 0.559999L48.4538 1.49979L48.4754 1.49193L48.4967 1.48308L48.112 0.559999ZM48.372 0.5L48.3055 -0.497797L48.3008 -0.49746L48.372 0.5ZM50.002 0.489999V15H52.002V0.489999H50.002ZM51.002 14H48.352V16H51.002V14ZM49.352 15V6.09H47.352V15H49.352ZM49.352 6.09C49.352 5.91509 49.3552 5.7256 49.3615 5.52123L47.3625 5.45877C47.3556 5.68107 47.352 5.89157 47.352 6.09H49.352ZM49.3601 5.55238C49.3722 5.3591 49.3904 5.16177 49.4148 4.96033L47.4293 4.71967C47.4004 4.95823 47.3786 5.19423 47.364 5.42762L49.3601 5.55238ZM47.5375 4.37356L43.3875 12.2436L45.1566 13.1764L49.3066 5.30644L47.5375 4.37356ZM43.3859 12.2465C43.3623 12.2916 43.3427 12.3174 43.3309 12.3307C43.3196 12.3434 43.3136 12.3469 43.3132 12.3472C43.3129 12.3474 43.3097 12.3496 43.2994 12.3523C43.2882 12.3552 43.2639 12.36 43.222 12.36V14.36C43.6162 14.36 44.0102 14.2679 44.3659 14.0478C44.7198 13.8287 44.9774 13.5189 45.1581 13.1735L43.3859 12.2465ZM43.222 12.36H42.802V14.36H43.222V12.36ZM42.802 12.36C42.7269 12.36 42.7002 12.3447 42.6918 12.3397L41.6722 14.0603C42.0238 14.2686 42.4105 14.36 42.802 14.36V12.36ZM42.7148 12.3538C42.7078 12.3493 42.6815 12.3329 42.6465 12.2628L40.8576 13.1572C41.0359 13.5138 41.2963 13.824 41.6492 14.0462L42.7148 12.3538ZM42.6364 12.2432L38.4664 4.34319L36.6977 5.27681L40.8677 13.1768L42.6364 12.2432ZM36.5857 4.8954C36.605 5.12095 36.6211 5.3393 36.6339 5.55049L38.6302 5.4295C38.6163 5.2007 38.599 4.96572 38.5784 4.7246L36.5857 4.8954ZM36.634 5.55238C36.6462 5.74785 36.652 5.92686 36.652 6.09H38.652C38.652 5.8798 38.6445 5.65882 38.6301 5.42762L36.634 5.55238ZM36.652 6.09V15H38.652V6.09H36.652ZM37.652 14H35.002V16H37.652V14ZM36.002 15V0.489999H34.002V15H36.002ZM35.002 1.49H37.282V-0.510001H35.002V1.49ZM37.282 1.49C37.392 1.49 37.4825 1.49292 37.5555 1.49778L37.6886 -0.497785C37.5615 -0.506253 37.4254 -0.510001 37.282 -0.510001V1.49ZM37.5555 1.49779C37.5637 1.49833 37.5276 1.49733 37.4682 1.47037L38.2958 -0.350368C38.0898 -0.444 37.8804 -0.484997 37.6885 -0.497786L37.5555 1.49779ZM37.5658 1.50868C37.4712 1.47713 37.3969 1.42245 37.3487 1.36896L38.8353 0.031034C38.6672 -0.155781 38.4529 -0.303802 38.1983 -0.388683L37.5658 1.50868ZM37.4231 1.4433C37.3962 1.41915 37.3835 1.4019 37.3821 1.40002C37.3806 1.39792 37.3866 1.40581 37.3982 1.42789L39.1658 0.492113C39.0725 0.315929 38.9436 0.121086 38.761 -0.0432966L37.4231 1.4433ZM37.3965 1.42452L41.4565 9.16452L43.2276 8.23548L39.1676 0.49548L37.3965 1.42452ZM41.4632 9.17709C41.5755 9.38397 41.6792 9.59721 41.7742 9.81691L43.6099 9.02309C43.4916 8.74946 43.3619 8.48269 43.2209 8.22291L41.4632 9.17709ZM41.7834 9.8375C41.8876 10.0644 41.9861 10.2982 42.0787 10.539L43.9454 9.82102C43.838 9.54177 43.7231 9.2689 43.6007 9.0025L41.7834 9.8375ZM43.9484 10.5311C44.0439 10.2764 44.1423 10.0287 44.2437 9.78806L42.4004 9.01194C42.2884 9.27792 42.1802 9.55025 42.0757 9.82888L43.9484 10.5311ZM44.2349 9.80837C44.3382 9.57732 44.4469 9.35697 44.5609 9.14709L42.8032 8.19291C42.6638 8.44969 42.5325 8.71601 42.4092 8.99163L44.2349 9.80837ZM44.5683 9.13323L48.5983 1.42323L46.8258 0.496766L42.7958 8.20677L44.5683 9.13323ZM48.5958 1.42788C48.6075 1.40581 48.6135 1.39792 48.6119 1.40001C48.6105 1.4019 48.5978 1.41915 48.571 1.4433L47.2331 -0.0432966C47.0504 0.121087 46.9215 0.315931 46.8282 0.492116L48.5958 1.42788ZM48.6091 1.40711C48.5936 1.42261 48.5434 1.46722 48.4538 1.49979L47.7703 -0.379793C47.534 -0.293887 47.3438 -0.155947 47.1949 -0.0071075L48.6091 1.40711ZM48.4967 1.48308C48.4692 1.49449 48.4491 1.49704 48.4433 1.49746L48.3008 -0.49746C48.1083 -0.483708 47.9148 -0.441161 47.7274 -0.363078L48.4967 1.48308ZM48.4386 1.49778C48.5106 1.49298 48.6041 1.49 48.722 1.49V-0.510001C48.5732 -0.510001 48.4335 -0.506318 48.3055 -0.497785L48.4386 1.49778ZM48.722 1.49H51.002V-0.510001H48.722V1.49ZM63.1855 7.03L62.4679 6.3335L62.4626 6.33902L63.1855 7.03ZM63.6755 4.19L62.7333 4.52501L62.7378 4.53777L62.7427 4.5504L63.6755 4.19ZM63.1755 3.43L62.4793 4.1479L62.4904 4.1586L62.5017 4.16895L63.1755 3.43ZM62.3355 2.94L62.6517 1.99132V1.99132L62.3355 2.94ZM59.2255 2.77V1.77H58.2255V2.77H59.2255ZM59.2255 7.71H58.2255V8.71H59.2255V7.71ZM63.6955 0.84L63.3872 1.7913L63.3897 1.79212L63.6955 0.84ZM65.4855 1.82L64.8165 2.56332L64.8224 2.56859L65.4855 1.82ZM66.5155 3.3L65.5818 3.65827L65.5855 3.66766L66.5155 3.3ZM66.5055 7.13L65.5748 6.76402L66.5055 7.13ZM65.4455 8.66L64.7759 7.91723L65.4455 8.66ZM63.6555 9.66L63.9638 10.6113L63.9717 10.6087L63.6555 9.66ZM59.2255 10.01V9.01H58.2255V10.01H59.2255ZM59.2255 15V16H60.2255V15H59.2255ZM56.2255 15H55.2255V16H56.2255V15ZM56.2255 0.489999V-0.510001H55.2255V0.489999H56.2255ZM61.1255 8.71C62.2029 8.71 63.2096 8.45194 63.9083 7.72098L62.4626 6.33902C62.2946 6.51472 61.928 6.71 61.1255 6.71V8.71ZM63.903 7.72647C64.5661 7.04335 64.8455 6.14958 64.8455 5.17H62.8455C62.8455 5.76375 62.6849 6.10998 62.4679 6.33352L63.903 7.72647ZM64.8455 5.17C64.8455 4.7044 64.772 4.25329 64.6083 3.8296L62.7427 4.5504C62.8056 4.71338 62.8455 4.9156 62.8455 5.17H64.8455ZM64.6177 3.85499C64.4582 3.40644 64.2019 3.01257 63.8492 2.69104L62.5017 4.16895C62.6024 4.26077 62.6794 4.37355 62.7333 4.52501L64.6177 3.85499ZM63.8716 2.7121C63.5271 2.37802 63.11 2.1441 62.6517 1.99132L62.0192 3.88868C62.2409 3.96257 62.3838 4.05531 62.4793 4.1479L63.8716 2.7121ZM62.6517 1.99132C62.1842 1.8355 61.669 1.77 61.1255 1.77V3.77C61.5153 3.77 61.8067 3.81784 62.0192 3.88868L62.6517 1.99132ZM61.1255 1.77H59.2255V3.77H61.1255V1.77ZM58.2255 2.77V7.71H60.2255V2.77H58.2255ZM59.2255 8.71H61.1255V6.71H59.2255V8.71ZM61.1255 1.49C62.0449 1.49 62.7923 1.59851 63.3872 1.79129L64.0038 -0.111293C63.1586 -0.385179 62.1927 -0.510001 61.1255 -0.510001V1.49ZM63.3897 1.79212C64.0103 1.99139 64.4749 2.25586 64.8165 2.56329L66.1544 1.0767C65.5627 0.544138 64.8339 0.155278 64.0012 -0.11212L63.3897 1.79212ZM64.8224 2.56859C65.1708 2.87711 65.4203 3.23722 65.5818 3.65825L67.4491 2.94175C67.1707 2.21611 66.7335 1.58956 66.1485 1.07141L64.8224 2.56859ZM65.5855 3.66766C65.7618 4.11358 65.8555 4.61089 65.8555 5.17H67.8555C67.8555 4.38244 67.7225 3.63309 67.4454 2.93234L65.5855 3.66766ZM65.8555 5.17C65.8555 5.77291 65.7572 6.30031 65.5748 6.76402L67.4361 7.49597C67.7204 6.77302 67.8555 5.99376 67.8555 5.17H65.8555ZM65.5748 6.76402C65.3982 7.21331 65.1342 7.5943 64.7759 7.91723L66.115 9.40277C66.7034 8.87236 67.1461 8.23336 67.4361 7.49597L65.5748 6.76402ZM64.7759 7.91723C64.4225 8.23577 63.9531 8.5067 63.3392 8.71132L63.9717 10.6087C64.7978 10.3333 65.5217 9.93756 66.115 9.40277L64.7759 7.91723ZM63.3472 8.70871C62.7499 8.90225 62.015 9.01 61.1255 9.01V11.01C62.1693 11.01 63.121 10.8844 63.9638 10.6113L63.3472 8.70871ZM61.1255 9.01H59.2255V11.01H61.1255V9.01ZM58.2255 10.01V15H60.2255V10.01H58.2255ZM59.2255 14H56.2255V16H59.2255V14ZM57.2255 15V0.489999H55.2255V15H57.2255ZM56.2255 1.49H61.1255V-0.510001H56.2255V1.49ZM76.7645 7.18L77.0861 8.12688L77.0941 8.12418L77.102 8.12134L76.7645 7.18ZM77.6345 6.67L78.3199 7.3982L78.3255 7.39293L78.331 7.38758L77.6345 6.67ZM78.1345 5.9L77.1947 5.55826V5.55826L78.1345 5.9ZM77.6045 3.34L76.9621 4.10639L76.9677 4.11096L77.6045 3.34ZM73.9645 2.77V1.77H72.9645V2.77H73.9645ZM73.9645 7.36H72.9645V8.36H73.9645V7.36ZM82.5345 15V16H84.3734L83.3739 14.4565L82.5345 15ZM78.7245 14.42L79.5872 13.9143L79.5809 13.9035L79.5743 13.8929L78.7245 14.42ZM75.9645 9.97L76.8144 9.44292L76.8081 9.43276L76.8015 9.42275L75.9645 9.97ZM75.5845 9.59L75.07 10.4475L75.0792 10.453L75.0884 10.4582L75.5845 9.59ZM73.9645 9.47V8.47H72.9645V9.47H73.9645ZM73.9645 15V16H74.9645V15H73.9645ZM70.9645 15H69.9645V16H70.9645V15ZM70.9645 0.489999V-0.510001H69.9645V0.489999H70.9645ZM78.1245 0.81L77.8404 1.76883L77.8486 1.77119L78.1245 0.81ZM80.9045 3.02L79.9794 3.39956L79.9811 3.40376L80.9045 3.02ZM81.0145 6.09L80.0629 5.78255L80.0601 5.79173L81.0145 6.09ZM80.4245 7.26L79.6191 6.66732V6.66732L80.4245 7.26ZM79.4645 8.2L80.0485 9.0118V9.0118L79.4645 8.2ZM78.1645 8.86L77.8405 7.91394L75.7052 8.64523L77.6815 9.73558L78.1645 8.86ZM78.7045 9.25L78.0275 9.98593L78.0356 9.99341L78.0439 10.0007L78.7045 9.25ZM79.1545 9.78L78.3142 10.3221L78.3151 10.3235L79.1545 9.78ZM75.5045 8.36C76.0692 8.36 76.6032 8.2909 77.0861 8.12688L76.443 6.23312C76.2192 6.30909 75.9132 6.36 75.5045 6.36V8.36ZM77.102 8.12134C77.5586 7.95764 77.9748 7.72304 78.3199 7.3982L76.9492 5.9418C76.841 6.04363 76.6771 6.14902 76.4271 6.23866L77.102 8.12134ZM78.331 7.38758C78.6648 7.06361 78.9154 6.67889 79.0743 6.24174L77.1947 5.55826C77.1404 5.70777 77.0576 5.83639 76.9381 5.95242L78.331 7.38758ZM79.0743 6.24174C79.225 5.82743 79.2945 5.39039 79.2945 4.94H77.2945C77.2945 5.18295 77.2574 5.3859 77.1947 5.55826L79.0743 6.24174ZM79.2945 4.94C79.2945 4.00542 78.9676 3.16891 78.2414 2.56904L76.9677 4.11096C77.1615 4.27109 77.2945 4.50125 77.2945 4.94H79.2945ZM78.2469 2.57363C77.5351 1.97694 76.5646 1.77 75.5245 1.77V3.77C76.3511 3.77 76.7673 3.94306 76.9621 4.10637L78.2469 2.57363ZM75.5245 1.77H73.9645V3.77H75.5245V1.77ZM72.9645 2.77V7.36H74.9645V2.77H72.9645ZM73.9645 8.36H75.5045V6.36H73.9645V8.36ZM82.5345 14H79.8245V16H82.5345V14ZM79.8245 14C79.698 14 79.6469 13.9762 79.6359 13.9704C79.6297 13.9671 79.6251 13.9638 79.6198 13.9587C79.6142 13.9531 79.6025 13.9403 79.5872 13.9143L77.8618 14.9257C78.2944 15.6636 79.0185 16 79.8245 16V14ZM79.5743 13.8929L76.8144 9.44292L75.1147 10.4971L77.8747 14.9471L79.5743 13.8929ZM76.8015 9.42275C76.6255 9.15349 76.3915 8.89939 76.0807 8.72176L75.0884 10.4582C75.0575 10.4406 75.077 10.4398 75.1276 10.5172L76.8015 9.42275ZM76.099 8.73251C75.7353 8.51428 75.3186 8.47 74.9845 8.47V10.47C75.0709 10.47 75.1192 10.4767 75.1384 10.4806C75.1471 10.4823 75.1445 10.4824 75.1333 10.4784C75.1221 10.4743 75.0995 10.4652 75.07 10.4475L76.099 8.73251ZM74.9845 8.47H73.9645V10.47H74.9845V8.47ZM72.9645 9.47V15H74.9645V9.47H72.9645ZM73.9645 14H70.9645V16H73.9645V14ZM71.9645 15V0.489999H69.9645V15H71.9645ZM70.9645 1.49H75.5245V-0.510001H70.9645V1.49ZM75.5245 1.49C76.4729 1.49 77.2385 1.59043 77.8404 1.7688L78.4086 -0.148798C77.5706 -0.397097 76.6028 -0.510001 75.5245 -0.510001V1.49ZM77.8486 1.77119C78.4723 1.95019 78.9325 2.18712 79.2644 2.45646L80.5247 0.903542C79.9366 0.426211 79.2168 0.0831409 78.4004 -0.151188L77.8486 1.77119ZM79.2644 2.45646C79.6016 2.73017 79.833 3.0429 79.9794 3.39956L81.8297 2.64044C81.5494 1.9571 81.1074 1.37649 80.5247 0.903542L79.2644 2.45646ZM79.9811 3.40376C80.1384 3.78218 80.2245 4.21653 80.2245 4.72H82.2245C82.2245 3.98347 82.0974 3.28448 81.828 2.63624L79.9811 3.40376ZM80.2245 4.72C80.2245 5.10129 80.1692 5.45381 80.063 5.78257L81.9661 6.39743C82.1399 5.85952 82.2245 5.29871 82.2245 4.72H80.2245ZM80.0601 5.79173C79.9591 6.11472 79.8122 6.40489 79.6191 6.66732L81.23 7.85268C81.5569 7.40844 81.8033 6.91861 81.969 6.38827L80.0601 5.79173ZM79.6191 6.66732C79.4251 6.93102 79.1815 7.17178 78.8806 7.3882L80.0485 9.0118C80.5076 8.68155 80.904 8.29565 81.23 7.85268L79.6191 6.66732ZM78.8806 7.3882C78.5876 7.59892 78.2435 7.77592 77.8405 7.91394L78.4885 9.80606C79.0589 9.61074 79.5814 9.34775 80.0485 9.0118L78.8806 7.3882ZM77.6815 9.73558C77.803 9.80264 77.9181 9.88534 78.0275 9.98593L79.3816 8.51407C79.1576 8.30799 78.9127 8.1307 78.6476 7.98442L77.6815 9.73558ZM78.0439 10.0007C78.1344 10.0803 78.2256 10.1847 78.3142 10.3221L79.9948 9.23787C79.8168 8.96197 79.608 8.71303 79.3652 8.49929L78.0439 10.0007ZM78.3151 10.3235L81.6951 15.5435L83.3739 14.4565L79.9939 9.23648L78.3151 10.3235ZM93.8128 9.49V10.49H95.2271L94.7556 9.15662L93.8128 9.49ZM92.2428 5.05L93.1856 4.71662L93.1788 4.69747L93.1713 4.67861L92.2428 5.05ZM91.9428 4.23L90.9902 4.53404L90.9931 4.54318L90.9962 4.55226L91.9428 4.23ZM91.6528 3.21L92.6219 2.96332L90.6827 2.96746L91.6528 3.21ZM91.3528 4.25L90.4041 3.93375L90.4002 3.94596L91.3528 4.25ZM91.0628 5.07L90.1343 4.69861L90.1267 4.71774L90.1198 4.73718L91.0628 5.07ZM89.5028 9.49L88.5598 9.15718L88.0894 10.49H89.5028V9.49ZM98.8528 15V16H100.316L99.7844 14.6366L98.8528 15ZM95.8828 14.82L95.2621 15.604L95.28 15.6182L95.2985 15.6315L95.8828 14.82ZM95.5228 14.34L94.5801 14.6735L94.5888 14.6982L94.5988 14.7224L95.5228 14.34ZM94.5428 11.57L95.4855 11.2365L95.2498 10.57H94.5428V11.57ZM88.7628 11.57V10.57H88.0559L87.8201 11.2365L88.7628 11.57ZM87.7828 14.34L88.7113 14.7114L88.7188 14.6926L88.7255 14.6735L87.7828 14.34ZM87.4328 14.8L88.0575 15.5809L88.0668 15.5734L88.076 15.5657L87.4328 14.8ZM84.4528 15L83.5214 14.636L82.9884 16H84.4528V15ZM90.1228 0.489999V-0.510001H89.4399L89.1914 0.126035L90.1228 0.489999ZM93.1928 0.489999L94.1244 0.126592L93.8761 -0.510001H93.1928V0.489999ZM94.7556 9.15662L93.1856 4.71662L91.3 5.38337L92.87 9.82338L94.7556 9.15662ZM93.1713 4.67861C93.0861 4.46563 92.9921 4.20937 92.8895 3.90773L90.9962 4.55226C91.1068 4.87729 91.2129 5.16771 91.3143 5.42139L93.1713 4.67861ZM92.8955 3.92596C92.8023 3.63414 92.711 3.3135 92.6219 2.96332L90.6837 3.45668C90.7812 3.83983 90.8833 4.19919 90.9902 4.53404L92.8955 3.92596ZM90.6827 2.96746C90.5947 3.31935 90.5017 3.64115 90.4041 3.93377L92.3015 4.56623C92.4173 4.21885 92.5243 3.84732 92.623 3.45254L90.6827 2.96746ZM90.4002 3.94596C90.3053 4.24305 90.2166 4.49296 90.1343 4.69861L91.9913 5.44139C92.0957 5.18037 92.2003 4.88361 92.3055 4.55404L90.4002 3.94596ZM90.1198 4.73718L88.5598 9.15718L90.4458 9.82282L92.0058 5.40282L90.1198 4.73718ZM89.5028 10.49H93.8128V8.49H89.5028V10.49ZM98.8528 14H96.5228V16H98.8528V14ZM96.5228 14C96.469 14 96.4434 13.9937 96.4386 13.9923C96.4355 13.9915 96.4483 13.9949 96.4671 14.0085L95.2985 15.6315C95.6759 15.9032 96.1092 16 96.5228 16V14ZM96.5035 14.036C96.4807 14.0179 96.4633 13.9976 96.4468 13.9576L94.5988 14.7224C94.7423 15.0691 94.9649 15.3688 95.2621 15.604L96.5035 14.036ZM96.4656 14.0065L95.4855 11.2365L93.6001 11.9035L94.5801 14.6735L96.4656 14.0065ZM94.5428 10.57H88.7628V12.57H94.5428V10.57ZM87.8201 11.2365L86.8401 14.0065L88.7255 14.6735L89.7056 11.9035L87.8201 11.2365ZM86.8543 13.9686C86.8605 13.9531 86.8568 13.9779 86.7896 14.0343L88.076 15.5657C88.3422 15.3421 88.5717 15.0603 88.7113 14.7114L86.8543 13.9686ZM86.8081 14.0191C86.815 14.0136 86.8228 14.0085 86.8307 14.0043C86.8386 14.0001 86.8447 13.9978 86.8477 13.9969C86.854 13.9949 86.8419 14 86.8028 14V16C87.2391 16 87.6819 15.8814 88.0575 15.5809L86.8081 14.0191ZM86.8028 14H84.4528V16H86.8028V14ZM85.3842 15.364L91.0542 0.853963L89.1914 0.126035L83.5214 14.636L85.3842 15.364ZM90.1228 1.49H93.1928V-0.510001H90.1228V1.49ZM92.2612 0.853406L97.9212 15.3634L99.7844 14.6366L94.1244 0.126592L92.2612 0.853406ZM108.196 7.18L108.517 8.12688L108.525 8.12418L108.533 8.12134L108.196 7.18ZM109.066 6.67L109.751 7.3982L109.757 7.39293L109.762 7.38758L109.066 6.67ZM109.566 5.9L108.626 5.55826V5.55826L109.566 5.9ZM109.036 3.34L108.393 4.10639L108.399 4.11096L109.036 3.34ZM105.396 2.77V1.77H104.396V2.77H105.396ZM105.396 7.36H104.396V8.36H105.396V7.36ZM113.966 15V16H115.805L114.805 14.4565L113.966 15ZM110.156 14.42L111.018 13.9143L111.012 13.9035L111.006 13.8929L110.156 14.42ZM107.396 9.97L108.246 9.44292L108.239 9.43276L108.233 9.42275L107.396 9.97ZM107.016 9.59L106.501 10.4475L106.51 10.453L106.52 10.4582L107.016 9.59ZM105.396 9.47V8.47H104.396V9.47H105.396ZM105.396 15V16H106.396V15H105.396ZM102.396 15H101.396V16H102.396V15ZM102.396 0.489999V-0.510001H101.396V0.489999H102.396ZM109.556 0.81L109.272 1.76883L109.28 1.77119L109.556 0.81ZM112.336 3.02L111.411 3.39956L111.412 3.40376L112.336 3.02ZM112.446 6.09L111.494 5.78255L111.491 5.79173L112.446 6.09ZM111.856 7.26L111.05 6.66732V6.66732L111.856 7.26ZM110.896 8.2L111.48 9.0118V9.0118L110.896 8.2ZM109.596 8.86L109.272 7.91394L107.136 8.64523L109.113 9.73558L109.596 8.86ZM110.136 9.25L109.459 9.98593L109.467 9.99341L109.475 10.0007L110.136 9.25ZM110.586 9.78L109.745 10.3221L109.746 10.3235L110.586 9.78ZM106.936 8.36C107.5 8.36 108.034 8.2909 108.517 8.12688L107.874 6.23312C107.65 6.30909 107.344 6.36 106.936 6.36V8.36ZM108.533 8.12134C108.99 7.95764 109.406 7.72304 109.751 7.3982L108.38 5.9418C108.272 6.04363 108.108 6.14902 107.858 6.23866L108.533 8.12134ZM109.762 7.38758C110.096 7.06361 110.347 6.67889 110.506 6.24174L108.626 5.55826C108.572 5.70777 108.489 5.83639 108.369 5.95242L109.762 7.38758ZM110.506 6.24174C110.656 5.82743 110.726 5.39039 110.726 4.94H108.726C108.726 5.18295 108.689 5.3859 108.626 5.55826L110.506 6.24174ZM110.726 4.94C110.726 4.00542 110.399 3.16891 109.673 2.56904L108.399 4.11096C108.593 4.27109 108.726 4.50125 108.726 4.94H110.726ZM109.678 2.57363C108.966 1.97694 107.996 1.77 106.956 1.77V3.77C107.782 3.77 108.199 3.94306 108.393 4.10637L109.678 2.57363ZM106.956 1.77H105.396V3.77H106.956V1.77ZM104.396 2.77V7.36H106.396V2.77H104.396ZM105.396 8.36H106.936V6.36H105.396V8.36ZM113.966 14H111.256V16H113.966V14ZM111.256 14C111.129 14 111.078 13.9762 111.067 13.9704C111.061 13.9671 111.056 13.9638 111.051 13.9587C111.045 13.9531 111.034 13.9403 111.018 13.9143L109.293 14.9257C109.726 15.6636 110.45 16 111.256 16V14ZM111.006 13.8929L108.246 9.44292L106.546 10.4971L109.306 14.9471L111.006 13.8929ZM108.233 9.42275C108.057 9.15349 107.823 8.89939 107.512 8.72176L106.52 10.4582C106.489 10.4406 106.508 10.4398 106.559 10.5172L108.233 9.42275ZM107.53 8.73251C107.167 8.51428 106.75 8.47 106.416 8.47V10.47C106.502 10.47 106.55 10.4767 106.57 10.4806C106.578 10.4823 106.576 10.4824 106.565 10.4784C106.553 10.4743 106.531 10.4652 106.501 10.4475L107.53 8.73251ZM106.416 8.47H105.396V10.47H106.416V8.47ZM104.396 9.47V15H106.396V9.47H104.396ZM105.396 14H102.396V16H105.396V14ZM103.396 15V0.489999H101.396V15H103.396ZM102.396 1.49H106.956V-0.510001H102.396V1.49ZM106.956 1.49C107.904 1.49 108.67 1.59043 109.272 1.7688L109.84 -0.148798C109.002 -0.397097 108.034 -0.510001 106.956 -0.510001V1.49ZM109.28 1.77119C109.904 1.95019 110.364 2.18712 110.696 2.45646L111.956 0.903542C111.368 0.426211 110.648 0.0831409 109.832 -0.151188L109.28 1.77119ZM110.696 2.45646C111.033 2.73017 111.264 3.0429 111.411 3.39956L113.261 2.64044C112.981 1.9571 112.539 1.37649 111.956 0.903542L110.696 2.45646ZM111.412 3.40376C111.57 3.78218 111.656 4.21653 111.656 4.72H113.656C113.656 3.98347 113.529 3.28448 113.259 2.63624L111.412 3.40376ZM111.656 4.72C111.656 5.10129 111.6 5.45381 111.494 5.78257L113.397 6.39743C113.571 5.85952 113.656 5.29871 113.656 4.72H111.656ZM111.491 5.79173C111.39 6.11472 111.243 6.40489 111.05 6.66732L112.661 7.85268C112.988 7.40844 113.235 6.91861 113.4 6.38827L111.491 5.79173ZM111.05 6.66732C110.856 6.93102 110.613 7.17178 110.312 7.3882L111.48 9.0118C111.939 8.68155 112.335 8.29565 112.661 7.85268L111.05 6.66732ZM110.312 7.3882C110.019 7.59892 109.675 7.77592 109.272 7.91394L109.92 9.80606C110.49 9.61074 111.013 9.34775 111.48 9.0118L110.312 7.3882ZM109.113 9.73558C109.234 9.80264 109.349 9.88534 109.459 9.98593L110.813 8.51407C110.589 8.30799 110.344 8.1307 110.079 7.98442L109.113 9.73558ZM109.475 10.0007C109.566 10.0803 109.657 10.1847 109.745 10.3221L111.426 9.23787C111.248 8.96197 111.039 8.71303 110.796 8.49929L109.475 10.0007ZM109.746 10.3235L113.126 15.5435L114.805 14.4565L111.425 9.23648L109.746 10.3235Z" fill="white" mask="url(#path-1-outside-1_7_58)"/>
</svg>
