<svg width="38" height="38" viewBox="0 0 38 38" fill="none" xmlns="http://www.w3.org/2000/svg">
<path d="M18.9909 5.86133C11.7292 5.86133 5.86133 11.7299 5.86133 18.991C5.86133 26.2527 11.7298 32.1206 18.9909 32.1206C26.2526 32.1206 32.1205 26.2521 32.1205 18.991C32.1627 11.7296 26.2523 5.86133 18.9909 5.86133ZM11.6448 20.8069V18.1051L17.3867 18.0628L15.6557 7.7195L18.3153 7.255L20.6375 20.7224L11.6448 20.8069Z" fill="white"/>
<path d="M35.2043 9.1123L33.6423 10.6744C37.3153 17.1338 36.4286 25.4935 30.8982 30.9815C25.4097 36.47 17.0505 37.3564 10.5913 33.7256L11.7732 32.5436L6.70703 31.4037L7.84686 36.47L9.02884 35.288C16.4172 39.6786 26.128 38.7499 32.4606 32.4172C38.7933 26.0842 39.6797 16.4162 35.2043 9.1123Z" fill="white"/>
<path d="M28.913 2.77946C21.6091 -1.69558 11.8986 -0.766922 5.56589 5.56578C-0.766773 11.8985 -1.69577 21.5672 2.77958 28.9131L4.34168 27.351C0.668614 20.8916 1.55537 12.5319 7.08574 7.04392C12.5742 1.55541 20.9335 0.668978 27.3927 4.29983L26.2107 5.48182L31.2769 6.62165L30.1371 1.55541L28.913 2.77946Z" fill="white"/>
</svg>
